<svg xmlns="http://www.w3.org/2000/svg" viewBox="0 0 24.97 24.95"><defs><style>.cls-1{fill:#fff;}</style></defs><title>facebook</title><g id="Layer_2" data-name="Layer 2"><g id="Layer_1-2" data-name="Layer 1"><path class="cls-1" d="M25,1.37V23.58A1.38,1.38,0,0,1,23.58,25H17.15V15.41h3.19l.48-3.71H17.15V9.26c0-1.09.31-1.85,1.9-1.85h2V4a25.37,25.37,0,0,0-2.92-.15c-2.89,0-4.88,1.77-4.88,5V11.7H9.95v3.71h3.31V25H1.37A1.37,1.37,0,0,1,0,23.58V1.37A1.37,1.37,0,0,1,1.37,0H23.58A1.38,1.38,0,0,1,25,1.37Z"/></g></g></svg>