<svg xmlns="http://www.w3.org/2000/svg" viewBox="0 0 131.02 130.96"><defs><style>.cls-1{fill:#1a1a1a;}</style></defs><title>facebook_1</title><g id="Layer_2" data-name="Layer 2"><g id="Layer_1-2" data-name="Layer 1"><path class="cls-1" d="M131,7.19V123.76a7.27,7.27,0,0,1-7.26,7.19H90V80.86H106.8l2.51-19.47H90V48.58c0-5.74,1.65-9.7,10-9.7h10.5V21a133.15,133.15,0,0,0-15.31-.79C80,20.2,69.57,29.5,69.57,46.6V61.39H52.21V80.86H69.57V131H7.19A7.21,7.21,0,0,1,0,123.76V7.19A7.21,7.21,0,0,1,7.19,0H123.76A7.27,7.27,0,0,1,131,7.19Z"/></g></g></svg>