<svg xmlns="http://www.w3.org/2000/svg" viewBox="0 0 175.72 175.72"><defs><style>.cls-1{fill:#1a1a1a;}</style></defs><title>instagram</title><g id="Layer_2" data-name="Layer 2"><g id="Layer_1-2" data-name="Layer 1"><path class="cls-1" d="M87.91,0c12.16,0,24.32-.06,36.48,0,11.44.07,22.18,2.68,31.49,9.63,12.16,9.08,18.38,21.49,19.53,36.46.41,5.27.28,10.58.29,15.88q0,30.79,0,61.58c0,8.38-1.17,16.57-4.71,24.24-7.2,15.55-19.75,24.05-36.31,27a61.44,61.44,0,0,1-10.53.85q-36.38.11-72.76,0c-12.61,0-24.15-3.34-34-11.53C7.44,155.86,2.17,145,.53,132.24a52.61,52.61,0,0,1-.46-6.64c0-25.5-.18-51,.07-76.48.14-13.93,4.77-26.28,15.14-36A46.18,46.18,0,0,1,46,.41c14-.5,28-.12,42-.12C87.91.2,87.91.11,87.91,0Zm-.14,159.46c11.7,0,23.4,0,35.1,0a53.76,53.76,0,0,0,9.17-.72c11.47-2.07,20.19-7.83,24.76-19A48.58,48.58,0,0,0,160,122.09c.38-22.87.17-45.75.14-68.63a53,53,0,0,0-.38-7.43c-1.57-11-6.33-20-16.44-25.45a37.39,37.39,0,0,0-18.13-4.21q-36.77,0-73.53,0a48.29,48.29,0,0,0-6.64.43c-12.48,1.75-21.68,7.9-26.28,20A42.33,42.33,0,0,0,16.26,52q0,35.88,0,71.77a49.84,49.84,0,0,0,.75,8.77c2.32,12.76,9.44,21.53,22.11,25.06a53.45,53.45,0,0,0,13.13,1.78C64.11,159.64,75.94,159.48,87.78,159.48Z"/><path class="cls-1" d="M133.15,87.58A45.32,45.32,0,1,1,87.9,42.24,45.39,45.39,0,0,1,133.15,87.58Zm-45.31,29a29,29,0,1,0-29-29.07A29.18,29.18,0,0,0,87.84,116.55Z"/><path class="cls-1" d="M134.83,51.37a10.24,10.24,0,1,1,.26-20.48,10.24,10.24,0,1,1-.26,20.48Z"/></g></g></svg>