<svg xmlns="http://www.w3.org/2000/svg" viewBox="0 0 58.21 53.65"><defs><style>.cls-1{fill:#fff;}</style></defs><title>70years</title><g id="Layer_2" data-name="Layer 2"><g id="Layer_1-2" data-name="Layer 1"><path class="cls-1" d="M25.86,18.39h-5a2.11,2.11,0,0,0-1.07.19,1.61,1.61,0,0,0-.51,1H18.07l1.45-4.45h1.19a.92.92,0,0,0,0,.22q0,.36.62.36h6.8l-4.1,13a4.11,4.11,0,0,1-.78,1.6,1.44,1.44,0,0,1-1.05.4,1.74,1.74,0,0,1-1.11-.35,1.14,1.14,0,0,1-.45-.95,6,6,0,0,1,.77-2Z"/><path class="cls-1" d="M29.87,22.94a9.17,9.17,0,0,1,1.43-5.56,4.55,4.55,0,0,1,7.38,0,8.82,8.82,0,0,1,1.45,5.47q0,4.06-1.41,6a4.4,4.4,0,0,1-3.7,1.9,4.33,4.33,0,0,1-2.85-1,5.64,5.64,0,0,1-1.76-2.61A13.19,13.19,0,0,1,29.87,22.94Zm3.63,0a29,29,0,0,0,.29,5q.29,1.47,1.28,1.47t1.14-1.18a27.17,27.17,0,0,0,.3-5.17A25.55,25.55,0,0,0,36.2,18q-.32-1.28-1.22-1.28t-1.14,1.22A23.54,23.54,0,0,0,33.51,23Z"/><path class="cls-1" d="M53,38.28l5-4.2a.64.64,0,0,0-.2-1.09,32.54,32.54,0,0,0-4.3-1.17c.69-5.6-.14-12.31-3.21-20.18a1.5,1.5,0,0,1,.82-1.93L52.81,9,49.36,0,40.08,3.88a2.09,2.09,0,0,0-1.17,2.61c3.77,10.86,5,18.9,4.18,24.7A111.71,111.71,0,0,0,29,33.2a119.32,119.32,0,0,1-12.91,1.92C13.85,29.22,14.59,20,19.29,6.49a2.09,2.09,0,0,0-1.17-2.61L8.85,0,5.4,9l1.72.71a1.5,1.5,0,0,1,.82,1.93c-3.6,9.22-4.12,16.85-2.72,23A31.21,31.21,0,0,1,.84,33.45a.64.64,0,0,0-.74.95L5.2,42.24l-5,4.49a.64.64,0,0,0,.22,1.07A35.73,35.73,0,0,0,12.3,49.69c1.11,0,2.22,0,3.32-.11a25.22,25.22,0,0,0,13.48,4.08,25.21,25.21,0,0,0,18.23-8.09,33.65,33.65,0,0,1,10,1.78.64.64,0,0,0,.75-.94ZM50.18,27.45a1.37,1.37,0,1,1-1.37-1.37A1.37,1.37,0,0,1,50.18,27.45ZM47.66,18a1.37,1.37,0,1,1-1.37,1.37A1.37,1.37,0,0,1,47.66,18ZM10.55,18a1.37,1.37,0,1,1-1.37,1.37A1.37,1.37,0,0,1,10.55,18ZM9.4,26.08A1.37,1.37,0,1,1,8,27.45,1.37,1.37,0,0,1,9.4,26.08ZM29,46.35c-8.91,1.66-18.11,3.37-27.11.59l4.57-4.12A.64.64,0,0,0,6.56,42L2.13,35.19c9.09,2.6,18.23.9,27.09-.74s18.08-3.36,27.07-.6l-4.52,3.82a.64.64,0,0,0-.13.82l4.47,7.13C47,43,37.86,44.7,29,46.35Z"/><path class="cls-1" d="M12.83,43.12q-.89-1.47-1.78-3a3.61,3.61,0,0,0-.65-.89,1.08,1.08,0,0,0-.62-.2v-.65c1.32.08,2.64.09,4,.05v.65c-.43,0-.64.13-.64.36a1.32,1.32,0,0,0,.24.58l1.29,2.1,1.19-2a1.17,1.17,0,0,0,.19-.59c0-.35-.25-.5-.76-.47v-.65q1.35-.08,2.71-.22v.65a1.09,1.09,0,0,0-.68.35,7.51,7.51,0,0,0-.86,1.26l-1.5,2.52q0,.88,0,1.75a1.13,1.13,0,0,0,.18.74.94.94,0,0,0,.76.16H16v.65c-1.41.1-2.82.15-4.23.14v-.65h.13a1,1,0,0,0,.77-.22,1.21,1.21,0,0,0,.18-.75Z"/><path class="cls-1" d="M21.39,41.83v1.95a2.46,2.46,0,0,0,.06.72.45.45,0,0,0,.34.23,2.27,2.27,0,0,0,.85,0,2.82,2.82,0,0,0,1.14-.38,2.21,2.21,0,0,0,.65-.79,4.28,4.28,0,0,0,.42-1.1l.65-.11-.05,2.6c-2.41.43-4.81.81-7.22,1.07v-.65l.15,0a1.08,1.08,0,0,0,.77-.31,1.31,1.31,0,0,0,.18-.77q0-2.34,0-4.68a1.08,1.08,0,0,0-.18-.73c-.12-.13-.38-.17-.76-.12l-.15,0v-.63c2.24-.24,4.48-.59,6.72-1l.12,2-.65.11a2.81,2.81,0,0,0-.39-.79.84.84,0,0,0-.43-.33,2.1,2.1,0,0,0-.74,0l-1.47.23v2.72l.73-.11a1.06,1.06,0,0,0,.7-.31A1.5,1.5,0,0,0,23,39.9l.66-.11v2.68l-.66.11c0-.05,0-.09,0-.11a1.17,1.17,0,0,0-.14-.59c-.1-.17-.34-.22-.73-.16Z"/><path class="cls-1" d="M27.77,42.39l-.15.42a2.18,2.18,0,0,0-.16.61.35.35,0,0,0,.19.36,1.22,1.22,0,0,0,.63,0q0,.32,0,.65l-2.61.48q0-.32,0-.65.74-.13,1.25-1.49l2.43-6.57.68-.13,2.47,5.66q.37.84.66,1a1,1,0,0,0,.57.08v.65c-1.31.22-2.61.46-3.92.71v-.65a1.47,1.47,0,0,0,.66-.22.39.39,0,0,0,.13-.28.81.81,0,0,0-.1-.35l-.08-.17-.23-.53Zm.25-.72,1.91-.36-1-2.17Z"/><path class="cls-1" d="M37.13,39.45v1.87a1,1,0,0,0,.19.73c.12.12.38.16.76.11l.14,0v.65c-1.42.19-2.84.42-4.25.66q0-.32,0-.65l.16,0a1.17,1.17,0,0,0,.77-.35,1.35,1.35,0,0,0,.18-.78V37a1,1,0,0,0-.19-.72c-.12-.12-.38-.15-.76-.08l-.16,0q0-.32,0-.65c1.06-.18,2.11-.36,3.17-.51l.71-.11a10.54,10.54,0,0,1,1.54-.13,2.43,2.43,0,0,1,1,.23,1.67,1.67,0,0,1,.74.65,1.79,1.79,0,0,1,.27,1,2.24,2.24,0,0,1-1.59,2.09,5.28,5.28,0,0,1,1.32,1.54,5.59,5.59,0,0,0,1,1.23,1,1,0,0,0,.65.18v.65q-1.23.08-2.47.22A15,15,0,0,1,39,40.64a8.47,8.47,0,0,0-.65-1A.72.72,0,0,0,38,39.4,3.22,3.22,0,0,0,37.13,39.45Zm0-.71a4.75,4.75,0,0,0,1.33-.3,1.27,1.27,0,0,0,.54-.54,2,2,0,0,0,.2-.95,1.27,1.27,0,0,0-.39-1.1,2,2,0,0,0-1.35-.14l-.32.05Z"/><path class="cls-1" d="M43.08,42.14v-2.7l.7,0a3.18,3.18,0,0,0,.87,1.7,1.89,1.89,0,0,0,1.26.5,1.09,1.09,0,0,0,.8-.29.94.94,0,0,0,.3-.69,1.06,1.06,0,0,0-.19-.57,2.31,2.31,0,0,0-.88-.64c-.9-.45-1.5-.75-1.82-.95a2.27,2.27,0,0,1-.76-.77,2.11,2.11,0,0,1-.29-1.11,2.28,2.28,0,0,1,.73-1.72,2.42,2.42,0,0,1,1.69-.71,2.32,2.32,0,0,1,1.71.69,1.53,1.53,0,0,0,.19-.53l.67,0q0,1.16,0,2.33l-.65,0a2.67,2.67,0,0,0-.66-1.29,1.48,1.48,0,0,0-1.1-.51,1,1,0,0,0-.73.27.87.87,0,0,0-.27.65.93.93,0,0,0,.17.55,1.35,1.35,0,0,0,.47.41c.2.11.62.31,1.26.61a6.77,6.77,0,0,1,1.27.77,2.48,2.48,0,0,1,.9,1.91,2.12,2.12,0,0,1-.77,1.7,2.73,2.73,0,0,1-1.84.65,3.12,3.12,0,0,1-1.2-.25,2.41,2.41,0,0,1-.93-.65,2.3,2.3,0,0,0-.2.65Z"/></g></g></svg>