<svg xmlns="http://www.w3.org/2000/svg" viewBox="0 0 223.92 36"><defs><style>.cls-1{fill:#1a1a1a;}</style></defs><title>stockmans-logo</title><g id="Layer_2" data-name="Layer 2"><g id="Layer_1-2" data-name="Layer 1"><rect class="cls-1" y="31.8" width="19.25" height="2"/><rect class="cls-1" x="204.67" y="31.8" width="19.25" height="2"/><path class="cls-1" d="M0,27.27v-9.2H2.4q1,4.12,3,5.89a6.33,6.33,0,0,0,4.28,1.76,3.67,3.67,0,0,0,2.72-1,3.26,3.26,0,0,0,1-2.38,3.53,3.53,0,0,0-.63-1.94,8,8,0,0,0-3-2.16,68.83,68.83,0,0,1-6.19-3.34A8.14,8.14,0,0,1,1,12.16,7.45,7.45,0,0,1,0,8.33,7.37,7.37,0,0,1,2.49,2.61,8.33,8.33,0,0,1,8.25.36a8.11,8.11,0,0,1,5.83,2.3A5.38,5.38,0,0,0,14.73.84H17V8.77H14.79a8.85,8.85,0,0,0-2.26-4.34,5.12,5.12,0,0,0-3.75-1.7,3.47,3.47,0,0,0-2.49.87,2.88,2.88,0,0,0-.92,2.18A3.23,3.23,0,0,0,6,7.65,4.69,4.69,0,0,0,7.57,9.08q1,.57,4.28,2.09a24.61,24.61,0,0,1,4.34,2.48,7.83,7.83,0,0,1,2.23,2.75A7.93,7.93,0,0,1,19.25,20a7.65,7.65,0,0,1-2.64,5.94,9.09,9.09,0,0,1-6.28,2.37,10.07,10.07,0,0,1-4.07-.87,8.37,8.37,0,0,1-3.18-2.32,7.57,7.57,0,0,0-.67,2.18Z"/><path class="cls-1" d="M29.19,2.19H27.47a5.77,5.77,0,0,0-2.27.33A2.67,2.67,0,0,0,24,3.85a6.37,6.37,0,0,0-.6,2.35H21.68V.36H42.2V6.2H40.49A6.13,6.13,0,0,0,39.13,3a4,4,0,0,0-2.8-.82H34.56V16.68a3,3,0,0,0,.48,2,2.66,2.66,0,0,0,2,.55h.53v1.68H26.25V19.19h.48a2.58,2.58,0,0,0,2-.57,3.13,3.13,0,0,0,.46-1.94Z"/><path class="cls-1" d="M43.87,10.55a10.55,10.55,0,0,1,1.54-5.4,9.55,9.55,0,0,1,4.18-3.89A12.92,12.92,0,0,1,55.23,0q5.41,0,8.49,3.12a10.49,10.49,0,0,1,3.08,7.66,10.16,10.16,0,0,1-3.07,7.41,11.21,11.21,0,0,1-8.35,3.1A13,13,0,0,1,49,19.76a8.88,8.88,0,0,1-4-4.1A12.19,12.19,0,0,1,43.87,10.55Zm6.32-.17q0,4.73,1.27,6.83a4.14,4.14,0,0,0,3.78,2.09,4.49,4.49,0,0,0,3.95-1.91q1.33-1.91,1.33-6.71a13.45,13.45,0,0,0-1.25-6.55A4.7,4.7,0,0,0,51.45,4Q50.18,6,50.18,10.39Z"/><path class="cls-1" d="M89,13v7.7H87.28a5.06,5.06,0,0,0-.86-2,9.09,9.09,0,0,1-6.74,2.57,9.84,9.84,0,0,1-7.62-3.11,10.57,10.57,0,0,1-2.86-7.39A11.16,11.16,0,0,1,72,3.28,9.77,9.77,0,0,1,79.84,0a8.87,8.87,0,0,1,6.33,2.46A12.36,12.36,0,0,0,86.81.63h1.66l.21,7.57H87a9.15,9.15,0,0,0-2.43-4.66A5.65,5.65,0,0,0,80.6,2a4.46,4.46,0,0,0-4,2.09q-1.35,2.09-1.35,6.52a20,20,0,0,0,.48,4.94,4.75,4.75,0,0,0,1.91,2.8,5.39,5.39,0,0,0,3.12,1,5.84,5.84,0,0,0,4-1.56A9,9,0,0,0,87.28,13Z"/><path class="cls-1" d="M99.29,12.76v3.92a3,3,0,0,0,.48,2,2.79,2.79,0,0,0,2.06.54v1.68H91.14V19.19h.32a2.58,2.58,0,0,0,2-.57,3.13,3.13,0,0,0,.46-1.94V4.55a3,3,0,0,0-.48-2,2.63,2.63,0,0,0-2-.55h-.32V.36h10.93V2h-.33a2.55,2.55,0,0,0-2,.57,3.13,3.13,0,0,0-.46,1.94v5.71l5.55-5.11q1.45-1.33,1.45-2.18T104.46,2V.36h9.07V2a6.15,6.15,0,0,0-2.6.63,17.65,17.65,0,0,0-3.86,2.95l-1.86,1.72,5.64,8.38a11.61,11.61,0,0,0,2.35,2.79,4.16,4.16,0,0,0,2.49.67v1.68H103.92V19.19q2.3,0,2.3-.92a4.83,4.83,0,0,0-.94-1.75l-3.9-5.68Z"/><path class="cls-1" d="M129.82,20.86l-7.62-16v10.6a8.11,8.11,0,0,0,.2,2.09,2.06,2.06,0,0,0,.91,1.14,3.13,3.13,0,0,0,1.75.47v1.68h-7.38V19.19a2.82,2.82,0,0,0,1.68-.51,2,2,0,0,0,.87-1.16,10,10,0,0,0,.16-2.11V4.63a2.92,2.92,0,0,0-.54-2.06A3.22,3.22,0,0,0,117.68,2V.36h8.21l6.32,13.47L138.59.36h8.24V2h-.41a2.58,2.58,0,0,0-2,.57A3.13,3.13,0,0,0,144,4.55V16.68a3,3,0,0,0,.48,2,2.63,2.63,0,0,0,2,.55h.47v1.68H135.73V19.19h.41a2.55,2.55,0,0,0,2-.57,3.13,3.13,0,0,0,.46-1.94v-12L131,20.86Z"/><path class="cls-1" d="M153.71,15.33l-.39,1a5,5,0,0,0-.42,1.51,1.1,1.1,0,0,0,.5,1,3.37,3.37,0,0,0,1.63.29v1.68h-6.77V19.19q1.94,0,3.25-3.3L157.8,0h1.77L166,15.87a6.36,6.36,0,0,0,1.72,2.83,2.83,2.83,0,0,0,1.48.48v1.68H159V19.19a3.32,3.32,0,0,0,1.71-.26.82.82,0,0,0,.33-.67,2.43,2.43,0,0,0-.27-1l-.2-.47-.59-1.5Zm.65-1.74h5l-2.56-6.12Z"/><path class="cls-1" d="M175.37,6.2v9.42q0,2.27.82,2.92a3.3,3.3,0,0,0,2.11.65v1.68h-7.7V19.19a3,3,0,0,0,1.71-.48,2.11,2.11,0,0,0,.92-1.1,7.18,7.18,0,0,0,.2-2V5.17Q173.43,2,170.5,2V.36h6.92l11.23,12.55V5.4q0-3.36-2.83-3.36V.36h7.36V2a2.66,2.66,0,0,0-1.44.42,2.14,2.14,0,0,0-.91,1.08,5.82,5.82,0,0,0-.24,1.91V21.2h-1.94Z"/><path class="cls-1" d="M196.05,10.79V9a4.42,4.42,0,0,0,2.61-.91,2.66,2.66,0,0,0,1.26-2.21q0-.74-.6-.74a3.18,3.18,0,0,0-.54.09,3.39,3.39,0,0,1-.67.09,2.3,2.3,0,0,1-1.58-.67,2.39,2.39,0,0,1-.73-1.85,2.79,2.79,0,0,1,.76-2A2.72,2.72,0,0,1,198.64,0a3.12,3.12,0,0,1,2.53,1.19,5.06,5.06,0,0,1,1,3.3,5.93,5.93,0,0,1-1.78,4.57A6.41,6.41,0,0,1,196.05,10.79Z"/><path class="cls-1" d="M204.69,27.27v-9.2h2.38q1,4.12,3,5.89a6.33,6.33,0,0,0,4.28,1.76,3.67,3.67,0,0,0,2.72-1,3.26,3.26,0,0,0,1-2.38,3.53,3.53,0,0,0-.63-1.94,8,8,0,0,0-3-2.16,68.83,68.83,0,0,1-6.19-3.34,8.14,8.14,0,0,1-2.58-2.73,7.45,7.45,0,0,1-1-3.83,7.37,7.37,0,0,1,2.49-5.72A8.33,8.33,0,0,1,212.91.36a8.11,8.11,0,0,1,5.83,2.3A5.38,5.38,0,0,0,219.4.84h2.28V8.77h-2.22a8.85,8.85,0,0,0-2.26-4.34,5.12,5.12,0,0,0-3.75-1.7,3.47,3.47,0,0,0-2.49.87A2.88,2.88,0,0,0,210,5.78a3.23,3.23,0,0,0,.59,1.87,4.69,4.69,0,0,0,1.61,1.43q1,.57,4.28,2.09a24.61,24.61,0,0,1,4.34,2.48,7.83,7.83,0,0,1,2.23,2.75,7.93,7.93,0,0,1,.82,3.58,7.65,7.65,0,0,1-2.64,5.94A9.09,9.09,0,0,1,215,28.28a10.07,10.07,0,0,1-4.07-.87,8.37,8.37,0,0,1-3.18-2.32,7.57,7.57,0,0,0-.67,2.18Z"/><path class="cls-1" d="M25.59,30.3v2a1.06,1.06,0,0,0,.18.71,1.09,1.09,0,0,0,.77.19v.6H22.69v-.6a1.17,1.17,0,0,0,.78-.18,1,1,0,0,0,.19-.72V28a1,1,0,0,0-.18-.71,1.13,1.13,0,0,0-.79-.19v-.6h3.85v.6a1.11,1.11,0,0,0-.76.19,1,1,0,0,0-.19.72v1.65h3V28a1.07,1.07,0,0,0-.18-.71,1,1,0,0,0-.76-.2v-.6h3.84v.6a1.2,1.2,0,0,0-.78.18,1,1,0,0,0-.19.72v4.37a1,1,0,0,0,.19.72,1.16,1.16,0,0,0,.79.19v.6H27.68v-.6a1.07,1.07,0,0,0,.75-.19,1,1,0,0,0,.18-.71v-2Z"/><path class="cls-1" d="M34,31.84l-.14.36a1.78,1.78,0,0,0-.15.54.4.4,0,0,0,.18.37,1.22,1.22,0,0,0,.59.11v.6H32v-.6q.7,0,1.17-1.19l2.27-5.72h.64L38.4,32a2.29,2.29,0,0,0,.62,1,1,1,0,0,0,.53.17v.6H35.89v-.6a1.19,1.19,0,0,0,.62-.1.3.3,0,0,0,.12-.24.88.88,0,0,0-.1-.34l-.07-.17-.21-.54Zm.23-.63H36L35.08,29Z"/><path class="cls-1" d="M42.95,30.58v1.75a1.08,1.08,0,0,0,.17.7,1,1,0,0,0,.71.2H44v.6H40v-.6h.15a.93.93,0,0,0,.72-.2,1.13,1.13,0,0,0,.17-.7V28a1.08,1.08,0,0,0-.17-.71,1,1,0,0,0-.71-.2H40v-.6h3.63a11.22,11.22,0,0,1,1.44.07,2.57,2.57,0,0,1,.9.31,1.83,1.83,0,0,1,.69.68,1.79,1.79,0,0,1,.25.93,1.83,1.83,0,0,1-1.49,1.8,5.89,5.89,0,0,1,1.24,1.57A5.79,5.79,0,0,0,47.57,33a1,1,0,0,0,.61.21v.6H45.87a15.85,15.85,0,0,1-1.17-1.9,9.53,9.53,0,0,0-.6-1,.81.81,0,0,0-.36-.29A3.17,3.17,0,0,0,42.95,30.58Zm0-.66a4,4,0,0,0,1.24-.11,1,1,0,0,0,.51-.44,1.72,1.72,0,0,0,.19-.86,1.33,1.33,0,0,0-.37-1.08,2,2,0,0,0-1.27-.3h-.3Z"/><path class="cls-1" d="M50.36,28.55v3.39q0,.82.3,1.05a1.19,1.19,0,0,0,.76.23v.6H48.64v-.6a1.1,1.1,0,0,0,.62-.17.76.76,0,0,0,.33-.4,2.58,2.58,0,0,0,.07-.71V28.18q0-1.13-1.06-1.13v-.6H51.1l4,4.52V28.26q0-1.21-1-1.21v-.6h2.65v.6a1,1,0,0,0-.52.15.77.77,0,0,0-.33.39,2.09,2.09,0,0,0-.09.69V34h-.7Z"/><path class="cls-1" d="M60.26,30.31v1.82a2.41,2.41,0,0,0,.06.68.52.52,0,0,0,.32.27,2.24,2.24,0,0,0,.79.11A2.39,2.39,0,0,0,62.5,33a1.62,1.62,0,0,0,.61-.63,3.37,3.37,0,0,0,.39-1h.61l0,2.42H57.31v-.6h.14a.92.92,0,0,0,.72-.2,1.13,1.13,0,0,0,.17-.7V27.95a1.1,1.1,0,0,0-.17-.71.94.94,0,0,0-.71-.2h-.14v-.59H63.6l.11,1.91H63.1a3.2,3.2,0,0,0-.36-.8,1,1,0,0,0-.41-.38,2,2,0,0,0-.69-.08H60.26v2.55h.69a.86.86,0,0,0,.65-.19,1.25,1.25,0,0,0,.18-.73h.62v2.5h-.62s0-.08,0-.1a1.22,1.22,0,0,0-.13-.57q-.13-.26-.68-.26Z"/><path class="cls-1" d="M65.1,33.71V31.18h.65a3.09,3.09,0,0,0,.82,1.62,1.74,1.74,0,0,0,1.18.48A1,1,0,0,0,68.5,33a.89.89,0,0,0,.28-.65,1,1,0,0,0-.17-.53,2.19,2.19,0,0,0-.83-.59,18.73,18.73,0,0,1-1.7-.92,2.23,2.23,0,0,1-.71-.75,2.17,2.17,0,0,1,.42-2.62,2.29,2.29,0,0,1,1.58-.62A2.23,2.23,0,0,1,69,27a1.48,1.48,0,0,0,.18-.5h.63v2.18h-.61a2.43,2.43,0,0,0-.62-1.19,1.41,1.41,0,0,0-1-.47,1,1,0,0,0-.68.24.79.79,0,0,0-.25.6.89.89,0,0,0,.16.51,1.29,1.29,0,0,0,.44.39q.28.15,1.18.57a6.76,6.76,0,0,1,1.19.68,2.15,2.15,0,0,1,.61.75,2.18,2.18,0,0,1,.23,1,2.1,2.1,0,0,1-.72,1.63,2.49,2.49,0,0,1-1.73.65,2.77,2.77,0,0,1-1.12-.24,2.3,2.3,0,0,1-.87-.64,2.08,2.08,0,0,0-.18.6Z"/><path class="cls-1" d="M71.38,33.71V31.18H72a3.09,3.09,0,0,0,.82,1.62,1.74,1.74,0,0,0,1.18.48,1,1,0,0,0,.75-.28.89.89,0,0,0,.28-.65,1,1,0,0,0-.17-.53,2.19,2.19,0,0,0-.83-.59,18.73,18.73,0,0,1-1.7-.92,2.23,2.23,0,0,1-.71-.75,2.17,2.17,0,0,1,.42-2.62,2.29,2.29,0,0,1,1.58-.62,2.23,2.23,0,0,1,1.6.63,1.48,1.48,0,0,0,.18-.5H76v2.18h-.61a2.43,2.43,0,0,0-.62-1.19,1.41,1.41,0,0,0-1-.47,1,1,0,0,0-.68.24.79.79,0,0,0-.25.6.89.89,0,0,0,.16.51,1.29,1.29,0,0,0,.44.39q.28.15,1.18.57a6.76,6.76,0,0,1,1.19.68,2.15,2.15,0,0,1,.61.75,2.18,2.18,0,0,1,.23,1,2.1,2.1,0,0,1-.72,1.63,2.49,2.49,0,0,1-1.73.65,2.77,2.77,0,0,1-1.12-.24,2.3,2.3,0,0,1-.87-.64,2.08,2.08,0,0,0-.18.6Z"/><path class="cls-1" d="M84.64,33.16a3.57,3.57,0,0,1-2.13.83A2.22,2.22,0,0,1,81,33.41,1.81,1.81,0,0,1,80.32,32q0-1.26,1.71-2.21a3,3,0,0,1-.55-1.55A1.55,1.55,0,0,1,82,27,2.25,2.25,0,0,1,84.53,27a1.18,1.18,0,0,1,.47,1,1.81,1.81,0,0,1-1.18,1.6l1.5,2a2.65,2.65,0,0,0,.59-1.2q0-.36-.48-.38v-.59h2.22v.59a1.25,1.25,0,0,0-.63.3,4.13,4.13,0,0,0-.57.77A10.81,10.81,0,0,1,85.75,32a5.06,5.06,0,0,0,.66.75.76.76,0,0,0,.5.2q.54,0,.62-.76h.6a1.69,1.69,0,0,1-.52,1.33,1.82,1.82,0,0,1-1.22.42A2.39,2.39,0,0,1,84.64,33.16Zm-.47-.49-1.75-2.29a1,1,0,0,0-.54.87,1.9,1.9,0,0,0,.45,1.16,1.29,1.29,0,0,0,1,.58A1.2,1.2,0,0,0,84.16,32.67ZM83.39,29a1.25,1.25,0,0,0,.66-1,.79.79,0,0,0-.2-.57.66.66,0,0,0-.5-.21.64.64,0,0,0-.4.13.5.5,0,0,0-.17.42A2.11,2.11,0,0,0,83.39,29Z"/><path class="cls-1" d="M91.81,33.71V31.18h.65a3.09,3.09,0,0,0,.82,1.62,1.74,1.74,0,0,0,1.18.48,1,1,0,0,0,.75-.28.89.89,0,0,0,.28-.65,1,1,0,0,0-.17-.53,2.19,2.19,0,0,0-.83-.59,18.73,18.73,0,0,1-1.7-.92,2.23,2.23,0,0,1-.71-.75,2.17,2.17,0,0,1,.42-2.62,2.29,2.29,0,0,1,1.58-.62,2.23,2.23,0,0,1,1.6.63,1.48,1.48,0,0,0,.18-.5h.63v2.18h-.61a2.43,2.43,0,0,0-.62-1.19,1.41,1.41,0,0,0-1-.47,1,1,0,0,0-.68.24.79.79,0,0,0-.25.6.89.89,0,0,0,.16.51,1.29,1.29,0,0,0,.44.39q.28.15,1.18.57a6.76,6.76,0,0,1,1.19.68,2.15,2.15,0,0,1,.61.75,2.18,2.18,0,0,1,.23,1,2.1,2.1,0,0,1-.72,1.63,2.49,2.49,0,0,1-1.73.65,2.77,2.77,0,0,1-1.12-.24,2.3,2.3,0,0,1-.87-.64,2.08,2.08,0,0,0-.18.6Z"/><path class="cls-1" d="M99.21,31.84l-.14.36a1.78,1.78,0,0,0-.15.54.4.4,0,0,0,.18.37,1.22,1.22,0,0,0,.59.11v.6H97.24v-.6q.7,0,1.17-1.19l2.27-5.72h.64L103.63,32a2.29,2.29,0,0,0,.62,1,1,1,0,0,0,.53.17v.6h-3.66v-.6a1.19,1.19,0,0,0,.62-.1.3.3,0,0,0,.12-.24.88.88,0,0,0-.1-.34l-.07-.17-.21-.54Zm.23-.63h1.79l-.92-2.2Z"/><path class="cls-1" d="M105.32,33.83v-.6a1.16,1.16,0,0,0,.77-.18,1,1,0,0,0,.19-.72V28a1.05,1.05,0,0,0-.18-.71,1.12,1.12,0,0,0-.78-.19v-.6l.89,0q1.34-.05,2.1-.05a11.84,11.84,0,0,1,2.07.15,3.81,3.81,0,0,1,1.51.65A3.31,3.31,0,0,1,113,28.45a4,4,0,0,1,.38,1.74,3.67,3.67,0,0,1-.41,1.74,3.29,3.29,0,0,1-1.09,1.23,3.46,3.46,0,0,1-1.42.57,19.22,19.22,0,0,1-2.47.11Zm2.9-6.8v5.08a3,3,0,0,0,0,.66.5.5,0,0,0,.24.29,1.21,1.21,0,0,0,.61.12,1.73,1.73,0,0,0,1.53-.75,4,4,0,0,0,.51-2.25,4.17,4.17,0,0,0-.38-1.92,2,2,0,0,0-1-1A4.13,4.13,0,0,0,108.22,27Z"/><path class="cls-1" d="M114.27,33.83v-.6A1.16,1.16,0,0,0,115,33a1,1,0,0,0,.19-.72V28a1.06,1.06,0,0,0-.18-.71,1.12,1.12,0,0,0-.78-.19v-.6l.89,0q1.34-.05,2.1-.05a11.84,11.84,0,0,1,2.07.15,3.81,3.81,0,0,1,1.51.65,3.31,3.31,0,0,1,1.09,1.29,4,4,0,0,1,.38,1.74,3.67,3.67,0,0,1-.41,1.74,3.29,3.29,0,0,1-1.09,1.23,3.46,3.46,0,0,1-1.42.57,19.21,19.21,0,0,1-2.47.11Zm2.9-6.8v5.08a3,3,0,0,0,0,.66.5.5,0,0,0,.25.29,1.21,1.21,0,0,0,.61.12,1.73,1.73,0,0,0,1.53-.75,4,4,0,0,0,.51-2.25,4.17,4.17,0,0,0-.38-1.92,2,2,0,0,0-1-1A4.13,4.13,0,0,0,117.16,27Z"/><path class="cls-1" d="M129.89,31.38l0,2.46h-6.73v-.6h.11A.93.93,0,0,0,124,33a1.13,1.13,0,0,0,.17-.7V28a1.08,1.08,0,0,0-.17-.71,1,1,0,0,0-.71-.2h-.11v-.6h4v.6h-.15a.93.93,0,0,0-.72.2,1.13,1.13,0,0,0-.17.7v4.21a2.27,2.27,0,0,0,.05.63.51.51,0,0,0,.29.26,2,2,0,0,0,.81.11,2,2,0,0,0,1.45-.49,2.58,2.58,0,0,0,.65-1.31Z"/><path class="cls-1" d="M133.39,30.31v1.82a2.42,2.42,0,0,0,.06.68.52.52,0,0,0,.32.27,2.24,2.24,0,0,0,.79.11,2.39,2.39,0,0,0,1.06-.18,1.62,1.62,0,0,0,.61-.63,3.38,3.38,0,0,0,.39-1h.61l0,2.42h-6.75v-.6h.14a.92.92,0,0,0,.72-.2,1.13,1.13,0,0,0,.17-.7V27.95a1.1,1.1,0,0,0-.17-.71.94.94,0,0,0-.71-.2h-.14v-.59h6.29l.11,1.91h-.61a3.21,3.21,0,0,0-.36-.8,1,1,0,0,0-.41-.38,2,2,0,0,0-.69-.08h-1.38v2.55h.69a.86.86,0,0,0,.65-.19,1.25,1.25,0,0,0,.18-.73h.61v2.5h-.61s0-.08,0-.1a1.22,1.22,0,0,0-.13-.57q-.13-.26-.68-.26Z"/><path class="cls-1" d="M141,33.71V31.18h.65a3.09,3.09,0,0,0,.82,1.62,1.74,1.74,0,0,0,1.18.48,1,1,0,0,0,.75-.28.9.9,0,0,0,.28-.65,1,1,0,0,0-.17-.53,2.19,2.19,0,0,0-.83-.59,18.77,18.77,0,0,1-1.7-.92,2.23,2.23,0,0,1-.71-.75,2.17,2.17,0,0,1,.42-2.62,2.29,2.29,0,0,1,1.58-.62,2.23,2.23,0,0,1,1.6.63,1.47,1.47,0,0,0,.18-.5h.63v2.18h-.61a2.43,2.43,0,0,0-.62-1.19,1.41,1.41,0,0,0-1-.47,1,1,0,0,0-.68.24.79.79,0,0,0-.25.6.89.89,0,0,0,.16.51,1.29,1.29,0,0,0,.44.39q.28.15,1.18.57a6.76,6.76,0,0,1,1.19.68,2.15,2.15,0,0,1,.61.75,2.17,2.17,0,0,1,.23,1,2.1,2.1,0,0,1-.72,1.63,2.49,2.49,0,0,1-1.73.65,2.76,2.76,0,0,1-1.12-.24,2.3,2.3,0,0,1-.87-.64,2.08,2.08,0,0,0-.19.6Z"/><path class="cls-1" d="M149.88,30.3v2a1.06,1.06,0,0,0,.18.71,1.09,1.09,0,0,0,.77.19v.6H147v-.6a1.17,1.17,0,0,0,.78-.18,1,1,0,0,0,.19-.72V28a1,1,0,0,0-.18-.71,1.13,1.13,0,0,0-.79-.19v-.6h3.85v.6a1.12,1.12,0,0,0-.77.19,1,1,0,0,0-.19.72v1.65h3V28a1.07,1.07,0,0,0-.18-.71,1,1,0,0,0-.76-.2v-.6h3.84v.6a1.2,1.2,0,0,0-.78.18,1,1,0,0,0-.19.72v4.37A1,1,0,0,0,155,33a1.16,1.16,0,0,0,.79.19v.6H152v-.6a1.07,1.07,0,0,0,.75-.19,1,1,0,0,0,.18-.71v-2Z"/><path class="cls-1" d="M156.6,30.12a3.8,3.8,0,0,1,.56-1.94,3.44,3.44,0,0,1,1.51-1.4,4.65,4.65,0,0,1,2-.45,4.1,4.1,0,0,1,3.06,1.12,3.78,3.78,0,0,1,1.11,2.76,3.66,3.66,0,0,1-1.1,2.67,4,4,0,0,1-3,1.12,4.69,4.69,0,0,1-2.3-.55A3.2,3.2,0,0,1,157,32,4.39,4.39,0,0,1,156.6,30.12Zm2.28-.06a5,5,0,0,0,.46,2.46,1.49,1.49,0,0,0,1.36.75,1.62,1.62,0,0,0,1.42-.69,4.44,4.44,0,0,0,.48-2.41,4.85,4.85,0,0,0-.45-2.36,1.69,1.69,0,0,0-2.81-.05A4.45,4.45,0,0,0,158.87,30.06Z"/><path class="cls-1" d="M168.54,30.57v1.76a1.1,1.1,0,0,0,.17.7,1,1,0,0,0,.72.2h.17v.6h-4v-.6h.13a.92.92,0,0,0,.72-.2,1.13,1.13,0,0,0,.17-.7V28a1.1,1.1,0,0,0-.17-.71.94.94,0,0,0-.71-.2h-.18v-.6l3-.07q1.12,0,1.73.06a3,3,0,0,1,1.12.33,1.88,1.88,0,0,1,.77.72,1.93,1.93,0,0,1,.26,1,1.82,1.82,0,0,1-.45,1.24,2.13,2.13,0,0,1-1.12.68,7.64,7.64,0,0,1-1.77.17Zm0-.65h.36a1.4,1.4,0,0,0,1.15-.38,1.62,1.62,0,0,0,.29-1,1.75,1.75,0,0,0-.21-.92,1,1,0,0,0-.54-.46,3.71,3.71,0,0,0-1.05-.11Z"/><path class="cls-1" d="M171.5,36v-.65a1.56,1.56,0,0,0,1-.33,1,1,0,0,0,.44-.79q0-.27-.22-.27l-.2,0-.24,0a.83.83,0,0,1-.57-.24.86.86,0,0,1-.26-.67,1,1,0,0,1,.27-.71,1,1,0,0,1,.75-.3,1.11,1.11,0,0,1,.92.43,1.87,1.87,0,0,1,.34,1.18,2.14,2.14,0,0,1-.64,1.65A2.31,2.31,0,0,1,171.5,36Z"/><path class="cls-1" d="M177.55,27.06v-.6h3.9v.6h-.11a.92.92,0,0,0-.72.2,1.13,1.13,0,0,0-.17.7v4.37a1.09,1.09,0,0,0,.17.7.94.94,0,0,0,.71.2h.11v.6h-3.9v-.6a1.2,1.2,0,0,0,.78-.18,1,1,0,0,0,.19-.72V28a1,1,0,0,0-.18-.72A1.16,1.16,0,0,0,177.55,27.06Z"/><path class="cls-1" d="M184,28.55v3.39q0,.82.3,1.05a1.19,1.19,0,0,0,.76.23v.6H182.3v-.6a1.1,1.1,0,0,0,.62-.17.76.76,0,0,0,.33-.4,2.59,2.59,0,0,0,.07-.71V28.18q0-1.13-1.06-1.13v-.6h2.49l4,4.52V28.26q0-1.21-1-1.21v-.6h2.65v.6a1,1,0,0,0-.52.15.77.77,0,0,0-.33.39,2.1,2.1,0,0,0-.09.69V34h-.7Z"/><path class="cls-1" d="M198.35,31v2.77h-.6a1.82,1.82,0,0,0-.31-.71A3.27,3.27,0,0,1,195,34a3.54,3.54,0,0,1-2.74-1.12,3.81,3.81,0,0,1-1-2.66,4,4,0,0,1,1-2.7,3.52,3.52,0,0,1,2.81-1.18,3.19,3.19,0,0,1,2.28.89,4.43,4.43,0,0,0,.23-.66h.6l.08,2.73h-.6a3.3,3.3,0,0,0-.87-1.68,2,2,0,0,0-1.44-.57,1.6,1.6,0,0,0-1.44.75,4.43,4.43,0,0,0-.48,2.35,7.19,7.19,0,0,0,.17,1.78,1.71,1.71,0,0,0,.69,1,1.94,1.94,0,0,0,1.12.35,2.1,2.1,0,0,0,1.44-.56,3.23,3.23,0,0,0,.91-1.71Z"/><path class="cls-1" d="M199.73,33a1,1,0,1,1,.29.7A1,1,0,0,1,199.73,33Z"/></g></g></svg>