<svg xmlns="http://www.w3.org/2000/svg" viewBox="0 0 178 28.62"><defs><style>.cls-1{fill:#fff;}</style></defs><title>whitestockmanslogo</title><g id="Layer_2" data-name="Layer 2"><g id="Layer_1-2" data-name="Layer 1"><rect class="cls-1" y="25.28" width="15.3" height="1.59"/><rect class="cls-1" x="162.7" y="25.28" width="15.3" height="1.59"/><path class="cls-1" d="M0,21.67V14.36H1.91A8.94,8.94,0,0,0,4.27,19a5,5,0,0,0,3.4,1.4,2.92,2.92,0,0,0,2.16-.8,2.59,2.59,0,0,0,.8-1.89,2.81,2.81,0,0,0-.5-1.54,6.32,6.32,0,0,0-2.4-1.72,54.71,54.71,0,0,1-4.92-2.66,6.47,6.47,0,0,1-2-2.17,5.92,5.92,0,0,1-.77-3A5.86,5.86,0,0,1,2,2.08,6.62,6.62,0,0,1,6.56.29a6.45,6.45,0,0,1,4.63,1.83A4.27,4.27,0,0,0,11.71.67h1.81V7H11.76A7,7,0,0,0,10,3.52,4.07,4.07,0,0,0,7,2.16a2.76,2.76,0,0,0-2,.69,2.29,2.29,0,0,0-.73,1.73,2.57,2.57,0,0,0,.47,1.49A3.73,3.73,0,0,0,6,7.21q.8.45,3.4,1.66a19.56,19.56,0,0,1,3.45,2A6.22,6.22,0,0,1,14.65,13a6.3,6.3,0,0,1,.65,2.84,6.08,6.08,0,0,1-2.1,4.72,7.22,7.22,0,0,1-5,1.88A8,8,0,0,1,5,21.78a6.66,6.66,0,0,1-2.53-1.84,6,6,0,0,0-.54,1.73Z"/><path class="cls-1" d="M23.21,1.74H21.84A4.59,4.59,0,0,0,20,2a2.13,2.13,0,0,0-1,1.05,5.06,5.06,0,0,0-.47,1.87H17.23V.29H33.54V4.93H32.18A4.88,4.88,0,0,0,31.1,2.4a3.17,3.17,0,0,0-2.22-.65H27.47V13.26a2.42,2.42,0,0,0,.38,1.56,2.11,2.11,0,0,0,1.59.44h.42v1.33h-9V15.25h.38a2,2,0,0,0,1.59-.45,2.49,2.49,0,0,0,.37-1.54Z"/><path class="cls-1" d="M34.87,8.39A8.38,8.38,0,0,1,36.1,4.1,7.59,7.59,0,0,1,39.42,1a10.27,10.27,0,0,1,4.49-1,9,9,0,0,1,6.75,2.48A8.34,8.34,0,0,1,53.1,8.57a8.08,8.08,0,0,1-2.44,5.89A8.91,8.91,0,0,1,44,16.92,10.36,10.36,0,0,1,39,15.71a7.06,7.06,0,0,1-3.14-3.26A9.69,9.69,0,0,1,34.87,8.39Zm5-.13a10.93,10.93,0,0,0,1,5.43,3.29,3.29,0,0,0,3,1.66A3.57,3.57,0,0,0,47,13.83Q48.1,12.31,48.1,8.5a10.7,10.7,0,0,0-1-5.2,3.73,3.73,0,0,0-6.21-.12A9.82,9.82,0,0,0,39.89,8.26Z"/><path class="cls-1" d="M70.72,10.32v6.12H69.38a4,4,0,0,0-.69-1.56,7.22,7.22,0,0,1-5.36,2,7.82,7.82,0,0,1-6.06-2.48A8.4,8.4,0,0,1,55,8.57a8.87,8.87,0,0,1,2.25-6A7.77,7.77,0,0,1,63.47,0a7.05,7.05,0,0,1,5,2A9.82,9.82,0,0,0,69,.5h1.32l.17,6H69.18a7.27,7.27,0,0,0-1.93-3.71,4.49,4.49,0,0,0-3.18-1.26,3.54,3.54,0,0,0-3.18,1.66A9.78,9.78,0,0,0,59.81,8.4a15.9,15.9,0,0,0,.38,3.92,3.78,3.78,0,0,0,1.52,2.23,4.29,4.29,0,0,0,2.48.78,4.65,4.65,0,0,0,3.17-1.24,7.14,7.14,0,0,0,2-3.77Z"/><path class="cls-1" d="M78.93,10.14v3.11a2.42,2.42,0,0,0,.38,1.56,2.22,2.22,0,0,0,1.64.43v1.33h-8.5V15.25h.25a2,2,0,0,0,1.59-.45,2.49,2.49,0,0,0,.37-1.54V3.62a2.42,2.42,0,0,0-.38-1.56,2.09,2.09,0,0,0-1.58-.44h-.25V.29h8.69V1.62h-.26a2,2,0,0,0-1.58.45,2.49,2.49,0,0,0-.37,1.54V8.16L83.34,4.1Q84.49,3,84.49,2.37T83,1.62V.29h7.21V1.62a4.89,4.89,0,0,0-2.07.5,14,14,0,0,0-3.06,2.34L83.64,5.84l4.48,6.66A9.23,9.23,0,0,0,90,14.72a3.3,3.3,0,0,0,2,.53v1.33H82.61V15.25q1.83,0,1.83-.73a3.84,3.84,0,0,0-.75-1.39l-3.1-4.52Z"/><path class="cls-1" d="M103.2,16.59,97.14,3.88v8.42A6.45,6.45,0,0,0,97.3,14a1.64,1.64,0,0,0,.73.91,2.48,2.48,0,0,0,1.39.37v1.33H93.55V15.25a2.24,2.24,0,0,0,1.33-.4,1.62,1.62,0,0,0,.69-.93,7.91,7.91,0,0,0,.13-1.68V3.68A2.32,2.32,0,0,0,95.27,2a2.56,2.56,0,0,0-1.72-.41V.29h6.53l5,10.71L110.17.29h6.55V1.62h-.32a2,2,0,0,0-1.59.45,2.49,2.49,0,0,0-.37,1.54v9.64a2.42,2.42,0,0,0,.38,1.56,2.09,2.09,0,0,0,1.58.44h.37v1.33H107.9V15.25h.32a2,2,0,0,0,1.58-.45,2.49,2.49,0,0,0,.37-1.54V3.68l-6,12.91Z"/><path class="cls-1" d="M122.19,12.19l-.31.81a4,4,0,0,0-.34,1.2.88.88,0,0,0,.4.82,2.68,2.68,0,0,0,1.3.23v1.33h-5.38V15.25q1.54,0,2.58-2.62l5-12.63h1.41L132,12.62a5.06,5.06,0,0,0,1.37,2.25,2.25,2.25,0,0,0,1.18.38v1.33h-8.09V15.25a2.64,2.64,0,0,0,1.36-.21.65.65,0,0,0,.26-.53,1.93,1.93,0,0,0-.22-.76l-.16-.37-.47-1.19Zm.52-1.38h4l-2-4.87Z"/><path class="cls-1" d="M139.41,4.93v7.49q0,1.8.65,2.32a2.62,2.62,0,0,0,1.68.52v1.33h-6.12V15.25a2.42,2.42,0,0,0,1.36-.38,1.68,1.68,0,0,0,.73-.88,5.7,5.7,0,0,0,.16-1.57V4.11q0-2.49-2.33-2.49V.29H141l8.93,10v-6q0-2.67-2.25-2.67V.29h5.85V1.62a2.12,2.12,0,0,0-1.15.34,1.71,1.71,0,0,0-.73.86,4.62,4.62,0,0,0-.19,1.52V16.85H150Z"/><path class="cls-1" d="M155.85,8.58V7.15a3.51,3.51,0,0,0,2.07-.72,2.11,2.11,0,0,0,1-1.75q0-.59-.48-.59a2.53,2.53,0,0,0-.43.07,2.69,2.69,0,0,1-.53.07,1.83,1.83,0,0,1-1.26-.53,1.9,1.9,0,0,1-.58-1.47,2.22,2.22,0,0,1,.61-1.58A2.16,2.16,0,0,1,157.9,0a2.48,2.48,0,0,1,2,.94,4,4,0,0,1,.78,2.63,4.72,4.72,0,0,1-1.42,3.64A5.09,5.09,0,0,1,155.85,8.58Z"/><path class="cls-1" d="M162.71,21.67V14.36h1.89A8.94,8.94,0,0,0,167,19a5,5,0,0,0,3.4,1.4,2.92,2.92,0,0,0,2.16-.8,2.59,2.59,0,0,0,.8-1.89,2.81,2.81,0,0,0-.5-1.54,6.32,6.32,0,0,0-2.4-1.72,54.71,54.71,0,0,1-4.92-2.66,6.47,6.47,0,0,1-2-2.17,5.92,5.92,0,0,1-.77-3,5.86,5.86,0,0,1,2-4.55A6.62,6.62,0,0,1,169.25.29a6.45,6.45,0,0,1,4.63,1.83,4.27,4.27,0,0,0,.52-1.45h1.81V7h-1.77a7,7,0,0,0-1.8-3.45,4.07,4.07,0,0,0-3-1.36,2.76,2.76,0,0,0-2,.69A2.29,2.29,0,0,0,167,4.59a2.57,2.57,0,0,0,.47,1.49,3.73,3.73,0,0,0,1.28,1.13q.8.45,3.4,1.66a19.56,19.56,0,0,1,3.45,2A6.22,6.22,0,0,1,177.35,13a6.3,6.3,0,0,1,.65,2.84,6.08,6.08,0,0,1-2.1,4.72,7.22,7.22,0,0,1-5,1.88,8,8,0,0,1-3.24-.69,6.66,6.66,0,0,1-2.53-1.84,6,6,0,0,0-.54,1.73Z"/><path class="cls-1" d="M20.34,24.08V25.7a.84.84,0,0,0,.14.56.86.86,0,0,0,.61.15v.48H18v-.48a.93.93,0,0,0,.62-.14.79.79,0,0,0,.15-.57V22.23a.83.83,0,0,0-.14-.57.9.9,0,0,0-.63-.15V21H21.1v.48a.89.89,0,0,0-.61.15.81.81,0,0,0-.15.57v1.32h2.41V22.23a.85.85,0,0,0-.14-.56.83.83,0,0,0-.6-.16V21h3.05v.48a1,1,0,0,0-.62.14.79.79,0,0,0-.15.58V25.7a.82.82,0,0,0,.15.57.92.92,0,0,0,.63.15v.48H22v-.48a.85.85,0,0,0,.6-.15.83.83,0,0,0,.15-.57V24.08Z"/><path class="cls-1" d="M27,25.31l-.11.29a1.42,1.42,0,0,0-.12.43.32.32,0,0,0,.14.3,1,1,0,0,0,.47.08v.48H25.45v-.48q.55,0,.93-.94l1.8-4.55h.51l1.84,4.54a1.82,1.82,0,0,0,.49.81.81.81,0,0,0,.42.14v.48H28.53v-.48a1,1,0,0,0,.49-.08.24.24,0,0,0,.1-.19.7.7,0,0,0-.08-.27L29,25.74l-.17-.43Zm.19-.5h1.42l-.73-1.75Z"/><path class="cls-1" d="M34.14,24.31V25.7a.86.86,0,0,0,.14.56.75.75,0,0,0,.57.16h.1v.48H31.78v-.48h.12a.74.74,0,0,0,.57-.16.9.9,0,0,0,.13-.56V22.23a.86.86,0,0,0-.14-.56.75.75,0,0,0-.57-.16h-.12V21h2.88a8.92,8.92,0,0,1,1.14.05,2,2,0,0,1,.71.25,1.46,1.46,0,0,1,.55.54,1.43,1.43,0,0,1,.2.74A1.46,1.46,0,0,1,36.09,24a4.69,4.69,0,0,1,1,1.25,4.6,4.6,0,0,0,.74,1,.79.79,0,0,0,.48.17v.48H36.46a12.6,12.6,0,0,1-.93-1.51,7.58,7.58,0,0,0-.48-.79.64.64,0,0,0-.28-.23A2.52,2.52,0,0,0,34.14,24.31Zm0-.53a3.16,3.16,0,0,0,1-.09.78.78,0,0,0,.4-.35,1.36,1.36,0,0,0,.15-.69,1.06,1.06,0,0,0-.29-.86,1.62,1.62,0,0,0-1-.24h-.24Z"/><path class="cls-1" d="M40,22.7v2.7q0,.65.24.84a.94.94,0,0,0,.6.19v.48h-2.2v-.48a.87.87,0,0,0,.49-.14.6.6,0,0,0,.26-.32,2.05,2.05,0,0,0,.06-.56v-3q0-.9-.84-.9V21h2l3.22,3.59V22.47q0-1-.81-1V21h2.11v.48a.76.76,0,0,0-.41.12.61.61,0,0,0-.26.31,1.66,1.66,0,0,0-.07.55V27h-.55Z"/><path class="cls-1" d="M47.9,24.09v1.45a1.92,1.92,0,0,0,0,.54.42.42,0,0,0,.26.21,1.78,1.78,0,0,0,.63.08,1.9,1.9,0,0,0,.85-.14,1.29,1.29,0,0,0,.48-.5,2.68,2.68,0,0,0,.31-.77H51l0,1.93H45.56v-.48h.11a.73.73,0,0,0,.57-.16.9.9,0,0,0,.13-.56V22.22a.87.87,0,0,0-.14-.56.75.75,0,0,0-.56-.16h-.11V21h5l.09,1.52h-.48a2.55,2.55,0,0,0-.29-.63.79.79,0,0,0-.32-.3,1.57,1.57,0,0,0-.55-.07H47.9v2h.55a.68.68,0,0,0,.52-.15,1,1,0,0,0,.14-.58h.49v2h-.49s0-.06,0-.08a1,1,0,0,0-.11-.45q-.11-.2-.54-.2Z"/><path class="cls-1" d="M51.75,26.8v-2h.52a2.45,2.45,0,0,0,.65,1.28,1.38,1.38,0,0,0,.93.39.8.8,0,0,0,.59-.22.71.71,0,0,0,.22-.52.77.77,0,0,0-.14-.42,1.74,1.74,0,0,0-.66-.47,14.89,14.89,0,0,1-1.35-.73A1.77,1.77,0,0,1,52,23.5a1.72,1.72,0,0,1,.33-2.08,1.82,1.82,0,0,1,1.26-.49,1.77,1.77,0,0,1,1.27.5A1.18,1.18,0,0,0,55,21h.5v1.73H55a1.93,1.93,0,0,0-.49-.95,1.12,1.12,0,0,0-.82-.37.76.76,0,0,0-.54.19.63.63,0,0,0-.2.48.71.71,0,0,0,.13.41,1,1,0,0,0,.35.31q.22.12.93.46a5.37,5.37,0,0,1,.95.54,1.71,1.71,0,0,1,.49.6,1.73,1.73,0,0,1,.18.78,1.67,1.67,0,0,1-.58,1.3A2,2,0,0,1,54,27a2.2,2.2,0,0,1-.89-.19,1.83,1.83,0,0,1-.69-.51,1.65,1.65,0,0,0-.15.48Z"/><path class="cls-1" d="M56.74,26.8v-2h.52a2.45,2.45,0,0,0,.65,1.28,1.38,1.38,0,0,0,.93.39.8.8,0,0,0,.59-.22.71.71,0,0,0,.22-.52.77.77,0,0,0-.14-.42,1.74,1.74,0,0,0-.66-.47,14.89,14.89,0,0,1-1.35-.73,1.77,1.77,0,0,1-.56-.59,1.72,1.72,0,0,1,.33-2.08,1.82,1.82,0,0,1,1.26-.49,1.77,1.77,0,0,1,1.27.5,1.18,1.18,0,0,0,.14-.4h.5v1.73H60a1.93,1.93,0,0,0-.49-.95,1.12,1.12,0,0,0-.82-.37.76.76,0,0,0-.54.19.63.63,0,0,0-.2.48.71.71,0,0,0,.13.41,1,1,0,0,0,.35.31q.22.12.93.46a5.37,5.37,0,0,1,.95.54,1.71,1.71,0,0,1,.49.6,1.73,1.73,0,0,1,.18.78,1.67,1.67,0,0,1-.58,1.3A2,2,0,0,1,59,27a2.2,2.2,0,0,1-.89-.19,1.83,1.83,0,0,1-.69-.51,1.65,1.65,0,0,0-.15.48Z"/><path class="cls-1" d="M67.28,26.36a2.84,2.84,0,0,1-1.69.66,1.77,1.77,0,0,1-1.22-.47,1.44,1.44,0,0,1-.51-1.11q0-1,1.36-1.76a2.38,2.38,0,0,1-.44-1.23,1.23,1.23,0,0,1,.4-1,1.79,1.79,0,0,1,2-.06.93.93,0,0,1,.37.78,1.44,1.44,0,0,1-.93,1.27L67.83,25a2.11,2.11,0,0,0,.47-1q0-.29-.38-.3v-.47h1.77v.47a1,1,0,0,0-.5.24,3.29,3.29,0,0,0-.45.61,8.6,8.6,0,0,1-.57.84,4,4,0,0,0,.52.6.61.61,0,0,0,.39.16q.43,0,.49-.61h.48a1.34,1.34,0,0,1-.41,1.06,1.45,1.45,0,0,1-1,.34A1.9,1.9,0,0,1,67.28,26.36ZM66.9,26l-1.39-1.82a.79.79,0,0,0-.43.69,1.51,1.51,0,0,0,.35.92,1,1,0,0,0,.83.46A1,1,0,0,0,66.9,26ZM66.29,23a1,1,0,0,0,.53-.77.63.63,0,0,0-.16-.45.53.53,0,0,0-.4-.17.51.51,0,0,0-.32.11.4.4,0,0,0-.14.34A1.67,1.67,0,0,0,66.29,23Z"/><path class="cls-1" d="M73,26.8v-2h.52a2.45,2.45,0,0,0,.65,1.28,1.38,1.38,0,0,0,.93.39.8.8,0,0,0,.59-.22.71.71,0,0,0,.22-.52.77.77,0,0,0-.14-.42,1.74,1.74,0,0,0-.66-.47,14.89,14.89,0,0,1-1.35-.73,1.77,1.77,0,0,1-.56-.59,1.72,1.72,0,0,1,.33-2.08,1.82,1.82,0,0,1,1.26-.49,1.77,1.77,0,0,1,1.27.5,1.18,1.18,0,0,0,.14-.4h.5v1.73h-.48a1.93,1.93,0,0,0-.49-.95,1.12,1.12,0,0,0-.82-.37.76.76,0,0,0-.54.19.63.63,0,0,0-.2.48.71.71,0,0,0,.13.41,1,1,0,0,0,.35.31q.22.12.93.46a5.37,5.37,0,0,1,.95.54,1.71,1.71,0,0,1,.49.6,1.73,1.73,0,0,1,.18.78,1.67,1.67,0,0,1-.58,1.3,2,2,0,0,1-1.37.52,2.2,2.2,0,0,1-.89-.19,1.83,1.83,0,0,1-.69-.51,1.65,1.65,0,0,0-.15.48Z"/><path class="cls-1" d="M78.86,25.31l-.11.29a1.42,1.42,0,0,0-.12.43.32.32,0,0,0,.14.3,1,1,0,0,0,.47.08v.48H77.3v-.48q.55,0,.93-.94L80,20.92h.51l1.84,4.54a1.82,1.82,0,0,0,.49.81.81.81,0,0,0,.42.14v.48H80.39v-.48a1,1,0,0,0,.49-.08.24.24,0,0,0,.1-.19.7.7,0,0,0-.08-.27l-.06-.13-.17-.43Zm.19-.5h1.42l-.73-1.75Z"/><path class="cls-1" d="M83.73,26.9v-.48a.92.92,0,0,0,.61-.14.8.8,0,0,0,.15-.57V22.22a.84.84,0,0,0-.14-.57.89.89,0,0,0-.62-.15V21l.71,0q1.06,0,1.67,0a9.41,9.41,0,0,1,1.65.12,3,3,0,0,1,1.2.51,2.63,2.63,0,0,1,.87,1,3.14,3.14,0,0,1,.3,1.39,2.92,2.92,0,0,1-.32,1.38,2.61,2.61,0,0,1-.87,1,2.75,2.75,0,0,1-1.13.45,15.28,15.28,0,0,1-2,.09ZM86,21.49v4a2.38,2.38,0,0,0,0,.52.4.4,0,0,0,.19.23,1,1,0,0,0,.49.1,1.37,1.37,0,0,0,1.22-.6,3.21,3.21,0,0,0,.4-1.79,3.31,3.31,0,0,0-.3-1.53,1.6,1.6,0,0,0-.77-.77A3.28,3.28,0,0,0,86,21.49Z"/><path class="cls-1" d="M90.84,26.9v-.48a.92.92,0,0,0,.61-.14.8.8,0,0,0,.15-.57V22.22a.84.84,0,0,0-.14-.57.89.89,0,0,0-.62-.15V21l.71,0q1.06,0,1.67,0a9.41,9.41,0,0,1,1.65.12,3,3,0,0,1,1.2.51,2.63,2.63,0,0,1,.87,1A3.14,3.14,0,0,1,97.23,24a2.92,2.92,0,0,1-.32,1.38,2.61,2.61,0,0,1-.87,1,2.75,2.75,0,0,1-1.13.45,15.27,15.27,0,0,1-2,.09Zm2.3-5.41v4a2.4,2.4,0,0,0,0,.52.4.4,0,0,0,.19.23,1,1,0,0,0,.49.1,1.37,1.37,0,0,0,1.22-.6,3.21,3.21,0,0,0,.4-1.79,3.31,3.31,0,0,0-.3-1.53,1.6,1.6,0,0,0-.77-.77A3.28,3.28,0,0,0,93.14,21.49Z"/><path class="cls-1" d="M103.25,24.94l0,2H97.88v-.48H98a.74.74,0,0,0,.57-.16.9.9,0,0,0,.13-.56V22.23a.86.86,0,0,0-.14-.56.75.75,0,0,0-.57-.16h-.09V21H101v.48h-.12a.74.74,0,0,0-.57.16.89.89,0,0,0-.13.56v3.35a1.81,1.81,0,0,0,0,.5.41.41,0,0,0,.23.21,1.63,1.63,0,0,0,.64.09,1.55,1.55,0,0,0,1.15-.39,2.05,2.05,0,0,0,.52-1Z"/><path class="cls-1" d="M106,24.09v1.45a1.92,1.92,0,0,0,0,.54.42.42,0,0,0,.26.21,1.78,1.78,0,0,0,.63.08,1.9,1.9,0,0,0,.85-.14,1.29,1.29,0,0,0,.48-.5,2.68,2.68,0,0,0,.31-.77h.48l0,1.93h-5.37v-.48h.11a.73.73,0,0,0,.57-.16.9.9,0,0,0,.13-.56V22.22a.87.87,0,0,0-.14-.56.75.75,0,0,0-.56-.16h-.11V21h5l.09,1.52h-.48a2.55,2.55,0,0,0-.29-.63.79.79,0,0,0-.32-.3,1.57,1.57,0,0,0-.55-.07H106v2h.55a.68.68,0,0,0,.52-.15,1,1,0,0,0,.15-.58h.49v2h-.49s0-.06,0-.08a1,1,0,0,0-.11-.45q-.11-.2-.54-.2Z"/><path class="cls-1" d="M112.1,26.8v-2h.52a2.45,2.45,0,0,0,.65,1.28,1.38,1.38,0,0,0,.93.39.8.8,0,0,0,.59-.22.71.71,0,0,0,.22-.52.77.77,0,0,0-.14-.42,1.74,1.74,0,0,0-.66-.47,14.92,14.92,0,0,1-1.35-.73,1.77,1.77,0,0,1-.56-.59,1.72,1.72,0,0,1,.33-2.08,1.82,1.82,0,0,1,1.26-.49,1.77,1.77,0,0,1,1.27.5,1.17,1.17,0,0,0,.14-.4h.5v1.73h-.48a1.93,1.93,0,0,0-.49-.95,1.12,1.12,0,0,0-.82-.37.76.76,0,0,0-.54.19.63.63,0,0,0-.2.48.71.71,0,0,0,.13.41,1,1,0,0,0,.35.31q.22.12.93.46a5.38,5.38,0,0,1,.95.54,1.71,1.71,0,0,1,.49.6,1.73,1.73,0,0,1,.18.78,1.67,1.67,0,0,1-.58,1.3,2,2,0,0,1-1.37.52,2.2,2.2,0,0,1-.89-.19,1.83,1.83,0,0,1-.69-.51,1.65,1.65,0,0,0-.15.48Z"/><path class="cls-1" d="M119.14,24.08V25.7a.84.84,0,0,0,.14.56.86.86,0,0,0,.61.15v.48h-3.06v-.48a.93.93,0,0,0,.62-.14.79.79,0,0,0,.15-.57V22.23a.83.83,0,0,0-.14-.57.9.9,0,0,0-.63-.15V21h3.06v.48a.89.89,0,0,0-.61.15.81.81,0,0,0-.15.57v1.32h2.41V22.23a.85.85,0,0,0-.14-.56.83.83,0,0,0-.6-.16V21h3.05v.48a1,1,0,0,0-.62.14.79.79,0,0,0-.15.58V25.7a.82.82,0,0,0,.15.57.92.92,0,0,0,.63.15v.48h-3.05v-.48a.85.85,0,0,0,.6-.15.83.83,0,0,0,.14-.57V24.08Z"/><path class="cls-1" d="M124.49,23.94a3,3,0,0,1,.44-1.54,2.73,2.73,0,0,1,1.2-1.11,3.69,3.69,0,0,1,1.62-.36,3.26,3.26,0,0,1,2.43.89,3,3,0,0,1,.88,2.19,2.91,2.91,0,0,1-.88,2.12,3.21,3.21,0,0,1-2.39.89,3.73,3.73,0,0,1-1.83-.44,2.54,2.54,0,0,1-1.13-1.17A3.49,3.49,0,0,1,124.49,23.94Zm1.81,0a3.94,3.94,0,0,0,.36,2,1.19,1.19,0,0,0,1.08.6,1.29,1.29,0,0,0,1.13-.55,3.53,3.53,0,0,0,.38-1.92,3.85,3.85,0,0,0-.36-1.87,1.34,1.34,0,0,0-2.24,0A3.53,3.53,0,0,0,126.3,23.9Z"/><path class="cls-1" d="M134,24.3v1.4a.87.87,0,0,0,.14.56.75.75,0,0,0,.57.16h.13v.48h-3.18v-.48h.1a.73.73,0,0,0,.57-.16.9.9,0,0,0,.13-.56V22.23a.87.87,0,0,0-.14-.56.75.75,0,0,0-.56-.16h-.14V21L134,21q.89,0,1.38,0a2.38,2.38,0,0,1,.89.26,1.49,1.49,0,0,1,.61.57,1.54,1.54,0,0,1,.21.78,1.45,1.45,0,0,1-.36,1,1.7,1.7,0,0,1-.89.54,6.07,6.07,0,0,1-1.41.13Zm0-.52h.29a1.11,1.11,0,0,0,.92-.3,1.29,1.29,0,0,0,.23-.8,1.39,1.39,0,0,0-.17-.73.78.78,0,0,0-.43-.36,3,3,0,0,0-.83-.08Z"/><path class="cls-1" d="M136.33,28.62V28.1a1.24,1.24,0,0,0,.76-.26.77.77,0,0,0,.35-.63q0-.22-.17-.22l-.16,0-.19,0a.66.66,0,0,1-.45-.19.68.68,0,0,1-.21-.53.81.81,0,0,1,.22-.56.77.77,0,0,1,.6-.24.88.88,0,0,1,.73.34,1.48,1.48,0,0,1,.27.94,1.7,1.7,0,0,1-.51,1.31A1.84,1.84,0,0,1,136.33,28.62Z"/><path class="cls-1" d="M141.14,21.51V21h3.1v.48h-.09a.73.73,0,0,0-.57.16.89.89,0,0,0-.13.56V25.7a.87.87,0,0,0,.14.56.74.74,0,0,0,.56.16h.09v.48h-3.1v-.48a1,1,0,0,0,.62-.14.79.79,0,0,0,.15-.58V22.23a.83.83,0,0,0-.14-.57A.92.92,0,0,0,141.14,21.51Z"/><path class="cls-1" d="M146.28,22.7v2.7q0,.65.24.84a.94.94,0,0,0,.6.19v.48h-2.2v-.48a.87.87,0,0,0,.49-.14.6.6,0,0,0,.26-.32,2.06,2.06,0,0,0,.06-.56v-3q0-.9-.84-.9V21h2l3.21,3.59V22.47q0-1-.81-1V21h2.11v.48a.76.76,0,0,0-.41.12.61.61,0,0,0-.26.31,1.67,1.67,0,0,0-.07.55V27h-.55Z"/><path class="cls-1" d="M157.67,24.64v2.2h-.48a1.45,1.45,0,0,0-.25-.56A2.6,2.6,0,0,1,155,27a2.82,2.82,0,0,1-2.18-.89A3,3,0,0,1,152,24a3.19,3.19,0,0,1,.81-2.15,2.8,2.8,0,0,1,2.24-.94,2.54,2.54,0,0,1,1.81.71,3.52,3.52,0,0,0,.18-.52h.48l.06,2.17h-.48a2.62,2.62,0,0,0-.69-1.33,1.62,1.62,0,0,0-1.14-.45,1.28,1.28,0,0,0-1.15.6,3.52,3.52,0,0,0-.38,1.86,5.72,5.72,0,0,0,.14,1.41,1.36,1.36,0,0,0,.55.8,1.55,1.55,0,0,0,.89.28,1.67,1.67,0,0,0,1.14-.45,2.57,2.57,0,0,0,.72-1.36Z"/><path class="cls-1" d="M158.77,26.27a.79.79,0,1,1,.23.55A.76.76,0,0,1,158.77,26.27Z"/></g></g></svg>